<?xml version="1.0" standalone="no"?>
<!DOCTYPE svg PUBLIC "-//W3C//DTD SVG 20010904//EN"
 "http://www.w3.org/TR/2001/REC-SVG-20010904/DTD/svg10.dtd">
<svg version="1.0" xmlns="http://www.w3.org/2000/svg"
 width="360.000000pt" height="405.000000pt" viewBox="0 0 360.000000 405.000000"
 preserveAspectRatio="xMidYMid meet">

<g transform="translate(0.000000,405.000000) scale(0.100000,-0.100000)"
fill="#000000" stroke="none">
<path d="M3185 2826 c-410 -239 -671 -389 -1382 -798 l-523 -300 18 -30 c53
-90 192 -199 305 -238 87 -31 249 -38 337 -16 137 35 258 114 336 220 l46 63
255 -148 c141 -81 258 -150 260 -153 11 -11 -107 -166 -187 -246 -391 -391
-990 -467 -1463 -186 -156 93 -297 229 -394 378 -42 64 -56 81 -51 58 2 -6
-152 -100 -342 -210 -190 -109 -346 -204 -348 -209 -2 -6 18 -33 45 -60 46
-47 242 -163 1445 -853 227 -131 289 -131 516 0 1013 581 1403 810 1439 845
23 22 54 67 70 101 l28 61 0 915 c0 863 -1 918 -18 963 -10 26 -24 47 -30 47
-7 0 -169 -92 -362 -204z"/>
<path d="M989 2923 l-24 -28 28 24 c25 23 32 31 24 31 -2 0 -14 -12 -28 -27z"/>
<path d="M2595 2930 c10 -11 20 -20 23 -20 3 0 -3 9 -13 20 -10 11 -20 20 -23
20 -3 0 3 -9 13 -20z"/>
<path d="M894 2828 l-19 -23 23 19 c21 18 27 26 19 26 -2 0 -12 -10 -23 -22z"/>
<path d="M2705 2820 c10 -11 20 -20 23 -20 3 0 -3 9 -13 20 -10 11 -20 20 -23
20 -3 0 3 -9 13 -20z"/>
<path d="M1379 2443 l-34 -38 38 34 c20 19 37 36 37 38 0 8 -8 0 -41 -34z"/>
<path d="M2215 2440 c21 -22 41 -40 44 -40 3 0 -13 18 -34 40 -21 22 -41 40
-44 40 -3 0 13 -18 34 -40z"/>
</g>
</svg>
